<svg width="18" height="18" viewBox="0 0 18 18" fill="none" xmlns="http://www.w3.org/2000/svg">
<path d="M17.9707 5.10563C17.9516 5.06024 17.9242 5.019 17.8897 4.98487L13.0147 0.109863C12.945 0.0393749 12.8493 0 12.75 0H4.875C3.84113 0 3.00002 0.841112 3.00002 1.87498V6.37498C2.99998 6.58198 3.16799 6.74999 3.37499 6.74999C3.58199 6.74999 3.75 6.58198 3.75 6.37498V1.87498C3.75 1.25472 4.25474 0.749987 4.875 0.749987H12.5947L16.7197 4.87497H14.25C13.6297 4.87497 13.125 4.37023 13.125 3.74997V2.62497C13.125 2.41797 12.957 2.24996 12.75 2.24996C12.543 2.24996 12.375 2.41801 12.375 2.62501V3.75C12.375 4.78388 13.2161 5.62499 14.25 5.62499H17.2499V16.125C17.2499 16.7452 16.7452 17.25 16.1249 17.25H9.74997C9.54297 17.25 9.37496 17.418 9.37496 17.625C9.37496 17.832 9.54297 18 9.74997 18H16.1249C17.1589 18 18 17.1589 18 16.125V5.24998C18 5.19974 17.9898 5.15098 17.9707 5.10563Z" fill="#174078"/>
<path d="M5.24998 7.49997C2.35501 7.49997 0 9.85498 0 12.75C0 15.645 2.35501 18 5.24998 18C8.14495 18 10.5 15.645 10.5 12.75C10.5 9.85502 8.14498 7.49997 5.24998 7.49997ZM5.24998 17.25C2.76862 17.25 0.749987 15.2313 0.749987 12.75C0.749987 10.2686 2.76862 8.25 5.24998 8.25C7.73134 8.25 9.74997 10.2686 9.74997 12.75C9.74997 15.2313 7.73137 17.25 5.24998 17.25Z" fill="#174078"/>
<path d="M6.74999 2.25C5.92273 2.25 5.24998 2.92274 5.24998 3.75C5.24998 4.57726 5.92273 5.25001 6.74999 5.25001C7.57725 5.25001 8.25 4.57726 8.25 3.75C8.25 2.92274 7.57725 2.25 6.74999 2.25ZM6.74999 4.49999C6.33637 4.49999 6 4.16362 6 3.75C6 3.33639 6.33637 2.99998 6.74999 2.99998C7.1636 2.99998 7.49997 3.33636 7.49997 3.74997C7.49997 4.16358 7.1636 4.49999 6.74999 4.49999Z" fill="#174078"/>
<path d="M15.375 9.74997H12C11.793 9.74997 11.625 9.91798 11.625 10.125C11.625 10.332 11.793 10.5 12 10.5H15.375C15.582 10.5 15.75 10.332 15.75 10.125C15.75 9.91798 15.582 9.74997 15.375 9.74997Z" fill="#174078"/>
<path d="M15.375 12H12C11.793 12 11.625 12.168 11.625 12.375C11.625 12.582 11.793 12.75 12 12.75H15.375C15.582 12.75 15.75 12.582 15.75 12.375C15.75 12.168 15.582 12 15.375 12Z" fill="#174078"/>
<path d="M13.875 14.25H12C11.793 14.25 11.625 14.418 11.625 14.625C11.625 14.832 11.793 15 12 15H13.875C14.082 15 14.25 14.832 14.25 14.625C14.25 14.418 14.082 14.25 13.875 14.25Z" fill="#174078"/>
<path d="M7.24939 11.8651H7.88899V12.393H7.24939V12.954H7.88899V13.4819H7.24939V15.1748H6.09541L5.13172 13.4819H4.39636V15.1748H3.2387V13.4819H2.60156V12.954H3.2387V12.393H2.60156V11.8651H3.2387V10.3711H4.39636L5.24466 11.8651H6.09541V10.3711H7.24939V11.8651ZM4.39636 12.954H4.83218L4.51544 12.393H4.39636V12.954ZM5.86462 12.954H6.09541V12.393H5.5442L5.86462 12.954Z" fill="#174078"/>
</svg>
